<?xml version="1.0" encoding="UTF-8"?>
<svg xmlns="http://www.w3.org/2000/svg" xmlns:xlink="http://www.w3.org/1999/xlink" viewBox="0 0 90.08 90.08">
  <defs>
    <style>
      .cls-1 {
        fill: url(#radial-gradient-7);
      }

      .cls-2 {
        fill: url(#radial-gradient-10);
      }

      .cls-3 {
        fill: url(#radial-gradient-8);
      }

      .cls-4 {
        fill: url(#radial-gradient-5);
      }

      .cls-5 {
        fill: url(#radial-gradient-4);
      }

      .cls-6 {
        isolation: isolate;
      }

      .cls-7 {
        fill: url(#Degradado_sin_nombre_34);
        opacity: .4;
      }

      .cls-7, .cls-8 {
        mix-blend-mode: overlay;
      }

      .cls-9 {
        fill: url(#radial-gradient-6);
      }

      .cls-8 {
        fill: url(#radial-gradient-2);
      }

      .cls-10 {
        fill: url(#radial-gradient);
      }

      .cls-11 {
        fill: url(#radial-gradient-3);
      }

      .cls-12 {
        fill: url(#radial-gradient-9);
      }
    </style>
    <radialGradient id="radial-gradient" cx="835.15" cy="27.27" fx="835.15" fy="27.27" r="53.81" gradientTransform="translate(886.67) rotate(-180) scale(1 -1)" gradientUnits="userSpaceOnUse">
      <stop offset="0" stop-color="#fff8c7"/>
      <stop offset=".16" stop-color="#ffe436"/>
      <stop offset="1" stop-color="#fe761c"/>
    </radialGradient>
    <radialGradient id="radial-gradient-2" cx="1690.94" cy="-1454.77" fx="1690.94" fy="-1454.77" r="8.08" gradientTransform="translate(-879.52 -3827.4) rotate(126.03) scale(1.43 2.08) skewX(-4.38)" gradientUnits="userSpaceOnUse">
      <stop offset="0" stop-color="#fff"/>
      <stop offset=".1" stop-color="#fff" stop-opacity=".85"/>
      <stop offset=".29" stop-color="#fff" stop-opacity=".59"/>
      <stop offset=".47" stop-color="#fff" stop-opacity=".38"/>
      <stop offset=".63" stop-color="#fff" stop-opacity=".22"/>
      <stop offset=".78" stop-color="#fff" stop-opacity=".1"/>
      <stop offset=".91" stop-color="#fff" stop-opacity=".03"/>
      <stop offset="1" stop-color="#fff" stop-opacity="0"/>
    </radialGradient>
    <radialGradient id="Degradado_sin_nombre_34" data-name="Degradado sin nombre 34" cx="-2145.09" cy="2807.35" fx="-2145.09" fy="2807.35" r="7.79" gradientTransform="translate(-3107.51 -256.63) rotate(-136.79) scale(1.61 .68) skewX(11.83)" gradientUnits="userSpaceOnUse">
      <stop offset="0" stop-color="#fff"/>
      <stop offset=".1" stop-color="#fff" stop-opacity=".85"/>
      <stop offset=".29" stop-color="#fff" stop-opacity=".59"/>
      <stop offset=".47" stop-color="#fff" stop-opacity=".38"/>
      <stop offset=".63" stop-color="#fff" stop-opacity=".22"/>
      <stop offset=".78" stop-color="#fff" stop-opacity=".1"/>
      <stop offset=".91" stop-color="#fff" stop-opacity=".03"/>
      <stop offset="1" stop-color="#fff" stop-opacity="0"/>
    </radialGradient>
    <radialGradient id="radial-gradient-3" cx="45.67" cy="1.74" fx="45.67" fy="1.74" r="9.36" gradientTransform="matrix(1, 0, 0, 1, 0, 0)" xlink:href="#radial-gradient"/>
    <radialGradient id="radial-gradient-4" cx="719.04" cy="-524.16" fx="719.04" fy="-524.16" r="9.36" gradientTransform="translate(-122.93 893.04) rotate(-45)" xlink:href="#radial-gradient"/>
    <radialGradient id="radial-gradient-5" cx="1566.96" cy="-420.06" fx="1566.96" fy="-420.06" r="9.36" gradientTransform="translate(421.8 1611.38) rotate(-90)" xlink:href="#radial-gradient"/>
    <radialGradient id="radial-gradient-6" cx="2093.02" cy="253.3" fx="2093.02" fy="253.3" r="9.36" gradientTransform="translate(1314.84 1734.31) rotate(-135)" xlink:href="#radial-gradient"/>
    <radialGradient id="radial-gradient-7" cx="1988.76" cy="1101.23" fx="1988.76" fy="1101.23" r="9.36" gradientTransform="translate(2033.17 1189.57) rotate(-180)" xlink:href="#radial-gradient"/>
    <radialGradient id="radial-gradient-8" cx="1315.56" cy="1627.29" fx="1315.56" fy="1627.29" r="9.36" gradientTransform="translate(2156.11 296.53) rotate(135)" xlink:href="#radial-gradient"/>
    <radialGradient id="radial-gradient-9" cx="467.46" cy="1523.03" fx="467.46" fy="1523.03" r="9.36" gradientTransform="translate(1611.38 -421.8) rotate(90)" xlink:href="#radial-gradient"/>
    <radialGradient id="radial-gradient-10" cx="-58.43" cy="849.83" fx="-58.43" fy="849.83" r="9.36" gradientTransform="translate(718.34 -544.73) rotate(45)" xlink:href="#radial-gradient"/>
  </defs>
  <g class="cls-6">
    <g id="Layer_2" data-name="Layer 2">
      <g id="OBJECTS">
        <path class="cls-10" d="M16.7,45.04c0,15.65,12.69,28.35,28.34,28.35s28.35-12.69,28.35-28.35-12.69-28.34-28.35-28.34-28.34,12.69-28.34,28.34Z"/>
        <g>
          <path class="cls-8" d="M49.36,42.12c-7.22-5.86-10.04-14.77-6.3-19.92,3.74-5.15,12.63-4.57,19.85,1.29,7.22,5.86,10.03,14.78,6.29,19.92-3.75,5.15-12.63,4.57-19.85-1.28Z"/>
          <path class="cls-7" d="M19.99,51.3c.96-3.13,5.82-1.84,10.86,2.9,5.04,4.74,8.36,11.12,7.4,14.26-.95,3.13-5.82,1.84-10.86-2.9-5.04-4.74-8.36-11.12-7.4-14.26Z"/>
        </g>
        <path class="cls-11" d="M48.48,8.32c0,1.9-1.54,3.44-3.44,3.44h0c-1.9,0-3.44-1.54-3.44-3.44V3.44c0-1.9,1.54-3.44,3.44-3.44h0c1.9,0,3.44,1.54,3.44,3.44v4.88Z"/>
        <path class="cls-5" d="M21.5,16.64c1.34,1.34,1.34,3.52,0,4.86h0c-1.34,1.34-3.52,1.34-4.86,0l-3.45-3.45c-1.34-1.34-1.34-3.52,0-4.86h0c1.34-1.34,3.52-1.34,4.86,0l3.45,3.45Z"/>
        <path class="cls-4" d="M8.32,41.6c1.9,0,3.44,1.54,3.44,3.44h0c0,1.9-1.54,3.44-3.44,3.44H3.44c-1.9,0-3.44-1.54-3.44-3.44H0c0-1.9,1.54-3.44,3.44-3.44h4.88Z"/>
        <path class="cls-9" d="M16.64,68.58c1.34-1.34,3.52-1.34,4.86,0h0c1.34,1.34,1.34,3.52,0,4.86l-3.45,3.45c-1.34,1.34-3.52,1.34-4.86,0h0c-1.34-1.34-1.34-3.52,0-4.86l3.45-3.45Z"/>
        <path class="cls-1" d="M41.6,81.77c0-1.9,1.54-3.44,3.44-3.44h0c1.9,0,3.44,1.54,3.44,3.44v4.88c0,1.9-1.54,3.44-3.44,3.44h0c-1.9,0-3.44-1.54-3.44-3.44v-4.88Z"/>
        <path class="cls-3" d="M68.58,73.44c-1.34-1.34-1.34-3.52,0-4.86h0c1.34-1.34,3.52-1.34,4.86,0l3.45,3.45c1.34,1.34,1.34,3.52,0,4.86h0c-1.34,1.34-3.52,1.34-4.86,0l-3.45-3.45Z"/>
        <path class="cls-12" d="M81.77,48.48c-1.9,0-3.44-1.54-3.44-3.44h0c0-1.9,1.54-3.44,3.44-3.44h4.88c1.9,0,3.44,1.54,3.44,3.44h0c0,1.9-1.54,3.44-3.44,3.44h-4.88Z"/>
        <path class="cls-2" d="M73.44,21.5c-1.34,1.34-3.52,1.34-4.86,0h0c-1.34-1.34-1.34-3.52,0-4.86l3.45-3.45c1.34-1.34,3.52-1.34,4.86,0h0c1.34,1.34,1.34,3.52,0,4.86l-3.45,3.45Z"/>
      </g>
    </g>
  </g>
</svg>