<svg xmlns="http://www.w3.org/2000/svg" version="1.1" xmlns:xlink="http://www.w3.org/1999/xlink" xmlns:svgjs="http://svgjs.com/svgjs" width="512" height="512" x="0" y="0" viewBox="0 0 512 512" style="enable-background:new 0 0 512 512" xml:space="preserve" class=""><g><path d="M256 0C114.517 0 0 114.497 0 256c0 141.484 114.497 256 256 256 141.483 0 256-114.497 256-256C512 114.516 397.503 0 256 0zm0 482c-77.727 0-147.073-39.056-188.364-101h376.727C402.963 443.108 333.54 482 256 482zM50.82 351C37.193 321.611 30 289.36 30 256 30 131.098 131.078 30 256 30c124.902 0 226 101.078 226 226 0 33.36-7.193 65.611-20.82 95H50.82z" fill="#fff" data-original="#000000" class=""></path><path d="M386.814 125.185c-5.857-5.858-15.355-5.858-21.213 0l-86.495 86.495A49.682 49.682 0 0 0 256 206c-27.57 0-50 22.43-50 50s22.43 50 50 50 50-22.43 50-50a49.67 49.67 0 0 0-5.681-23.106l86.495-86.496c5.858-5.858 5.858-15.355 0-21.213zM256 276c-11.028 0-20-8.972-20-20s8.972-20 20-20 20 8.972 20 20-8.972 20-20 20z" fill="#fff" data-original="#000000" class=""></path><circle cx="256" cy="86" r="20" fill="#fff" data-original="#000000" class=""></circle><circle cx="135.79" cy="135.79" r="20" fill="#fff" data-original="#000000" class=""></circle><circle cx="86" cy="256" r="20" fill="#fff" data-original="#000000" class=""></circle><circle cx="426" cy="256" r="20" fill="#fff" data-original="#000000" class=""></circle></g></svg>