<?xml version="1.0" encoding="UTF-8"?>
<svg xmlns="http://www.w3.org/2000/svg" xmlns:xlink="http://www.w3.org/1999/xlink" viewBox="0 0 93.96 97.6">
  <defs>
    <style>
      .cls-1 {
        fill: url(#radial-gradient-7);
      }

      .cls-2 {
        fill: url(#radial-gradient-10);
      }

      .cls-3 {
        fill: url(#radial-gradient-12);
      }

      .cls-3, .cls-4, .cls-5, .cls-6, .cls-7, .cls-8, .cls-9, .cls-10, .cls-11 {
        mix-blend-mode: overlay;
      }

      .cls-4 {
        fill: url(#radial-gradient-20);
      }

      .cls-12 {
        fill: url(#radial-gradient-21);
      }

      .cls-13 {
        fill: url(#radial-gradient-8);
      }

      .cls-5 {
        fill: url(#radial-gradient-18);
      }

      .cls-14 {
        fill: url(#radial-gradient-5);
      }

      .cls-15 {
        fill: url(#radial-gradient-4);
      }

      .cls-16 {
        isolation: isolate;
      }

      .cls-6 {
        fill: url(#Degradado_sin_nombre_34);
        opacity: .4;
      }

      .cls-17 {
        fill: url(#radial-gradient-6);
      }

      .cls-18 {
        fill: url(#radial-gradient-19);
      }

      .cls-7 {
        fill: url(#radial-gradient-2);
      }

      .cls-19 {
        fill: url(#radial-gradient);
      }

      .cls-8 {
        fill: url(#radial-gradient-16);
      }

      .cls-20 {
        fill: url(#radial-gradient-13);
      }

      .cls-21 {
        fill: url(#radial-gradient-15);
      }

      .cls-9 {
        fill: url(#radial-gradient-22);
      }

      .cls-10 {
        fill: url(#Degradado_sin_nombre_34-2);
        opacity: .2;
      }

      .cls-11 {
        fill: url(#radial-gradient-14);
      }

      .cls-22 {
        fill: url(#radial-gradient-3);
      }

      .cls-23 {
        fill: url(#radial-gradient-17);
      }

      .cls-24 {
        fill: url(#radial-gradient-11);
      }

      .cls-25 {
        fill: url(#radial-gradient-9);
      }
    </style>
    <radialGradient id="radial-gradient" cx="-615.16" cy="20.57" fx="-615.16" fy="20.57" r="40.6" gradientTransform="translate(-550.29) rotate(-180) scale(1 -1)" gradientUnits="userSpaceOnUse">
      <stop offset="0" stop-color="#fff8c7"/>
      <stop offset=".16" stop-color="#ffe436"/>
      <stop offset="1" stop-color="#fe761c"/>
    </radialGradient>
    <radialGradient id="radial-gradient-2" cx="1094.31" cy="-2793.5" fx="1094.31" fy="-2793.5" r="6.09" gradientTransform="translate(-3534.86 -4904.4) rotate(126.03) scale(1.43 2.08) skewX(-4.38)" gradientUnits="userSpaceOnUse">
      <stop offset="0" stop-color="#fff"/>
      <stop offset=".1" stop-color="#fff" stop-opacity=".85"/>
      <stop offset=".29" stop-color="#fff" stop-opacity=".59"/>
      <stop offset=".47" stop-color="#fff" stop-opacity=".38"/>
      <stop offset=".63" stop-color="#fff" stop-opacity=".22"/>
      <stop offset=".78" stop-color="#fff" stop-opacity=".1"/>
      <stop offset=".91" stop-color="#fff" stop-opacity=".03"/>
      <stop offset="1" stop-color="#fff" stop-opacity="0"/>
    </radialGradient>
    <radialGradient id="Degradado_sin_nombre_34" data-name="Degradado sin nombre 34" cx="-3516.47" cy="1858.6" fx="-3516.47" fy="1858.6" r="5.88" gradientTransform="translate(-4484.89 -2471.77) rotate(-136.79) scale(1.61 .68) skewX(11.83)" gradientUnits="userSpaceOnUse">
      <stop offset="0" stop-color="#fff"/>
      <stop offset=".1" stop-color="#fff" stop-opacity=".85"/>
      <stop offset=".29" stop-color="#fff" stop-opacity=".59"/>
      <stop offset=".47" stop-color="#fff" stop-opacity=".38"/>
      <stop offset=".63" stop-color="#fff" stop-opacity=".22"/>
      <stop offset=".78" stop-color="#fff" stop-opacity=".1"/>
      <stop offset=".91" stop-color="#fff" stop-opacity=".03"/>
      <stop offset="1" stop-color="#fff" stop-opacity="0"/>
    </radialGradient>
    <radialGradient id="radial-gradient-3" cx="60.45" cy="1.31" fx="60.45" fy="1.31" r="7.06" gradientTransform="matrix(1, 0, 0, 1, 0, 0)" xlink:href="#radial-gradient"/>
    <radialGradient id="radial-gradient-4" cx="-55.91" cy="-244.11" fx="-55.91" fy="-244.11" r="7.06" gradientTransform="translate(249.35 143.62) rotate(-45)" xlink:href="#radial-gradient"/>
    <radialGradient id="radial-gradient-5" cx="35.27" cy="-500.13" fx="35.27" fy="-500.13" r="7.06" gradientTransform="translate(527.43 68.78) rotate(-90)" xlink:href="#radial-gradient"/>
    <radialGradient id="radial-gradient-6" cx="280.85" cy="-616.49" fx="280.85" fy="-616.49" r="7.06" gradientTransform="translate(671.05 -180.57) rotate(-135)" xlink:href="#radial-gradient"/>
    <radialGradient id="radial-gradient-7" cx="536.7" cy="-525.31" fx="536.7" fy="-525.31" r="7.06" gradientTransform="translate(596.21 -458.65) rotate(-180)" xlink:href="#radial-gradient"/>
    <radialGradient id="radial-gradient-8" cx="653.23" cy="-279.72" fx="653.23" fy="-279.72" r="7.06" gradientTransform="translate(346.86 -602.27) rotate(135)" xlink:href="#radial-gradient"/>
    <radialGradient id="radial-gradient-9" cx="561.88" cy="-23.87" fx="561.88" fy="-23.87" r="7.06" gradientTransform="translate(68.79 -527.43) rotate(90)" xlink:href="#radial-gradient"/>
    <radialGradient id="radial-gradient-10" cx="316.46" cy="92.66" fx="316.46" fy="92.66" r="7.06" gradientTransform="translate(-74.84 -278.08) rotate(45)" xlink:href="#radial-gradient"/>
    <radialGradient id="radial-gradient-11" cx="891.12" cy="27.51" fx="891.12" fy="27.51" r="76.93" gradientTransform="translate(884.79 1.41) rotate(-180) scale(.97 -.97)" gradientUnits="userSpaceOnUse">
      <stop offset="0" stop-color="#fff"/>
      <stop offset=".2" stop-color="#d9f7ff"/>
      <stop offset="1" stop-color="#89c0f5"/>
    </radialGradient>
    <radialGradient id="radial-gradient-12" cx="737.9" cy="-3116.99" fx="737.9" fy="-3116.99" r="9.03" gradientTransform="translate(4444.08 -4904.4) rotate(53.97) scale(1.43 -2.08) skewX(-4.38)" xlink:href="#radial-gradient-2"/>
    <radialGradient id="Degradado_sin_nombre_34-2" data-name="Degradado sin nombre 34" cx="841.21" cy="229.34" fx="841.21" fy="229.34" r="5.19" gradientTransform="translate(993.11 35.16) rotate(-146.99) scale(.84 -2.3) skewX(11.81)" xlink:href="#Degradado_sin_nombre_34"/>
    <radialGradient id="radial-gradient-13" cx="36.31" cy="-189.1" fx="36.31" fy="-189.1" r="9.89" gradientTransform="translate(-112.8 240.22) rotate(30)" gradientUnits="userSpaceOnUse">
      <stop offset="0" stop-color="#d4f6ff"/>
      <stop offset=".2" stop-color="#d9f7ff"/>
      <stop offset="1" stop-color="#89c0f5"/>
    </radialGradient>
    <radialGradient id="radial-gradient-14" cx="991.5" cy="-2720.35" fx="991.5" fy="-2720.35" r="1.55" gradientTransform="translate(-721.5 -5774.32) rotate(156.04) scale(1.43 2.08) skewX(-4.38)" xlink:href="#radial-gradient-2"/>
    <radialGradient id="radial-gradient-15" cx="55.93" cy="-200.43" fx="55.93" fy="-200.43" r="9.89" xlink:href="#radial-gradient-13"/>
    <radialGradient id="radial-gradient-16" cx="976.66" cy="-2724.77" fx="976.66" fy="-2724.77" r="1.55" gradientTransform="translate(-721.5 -5774.32) rotate(156.04) scale(1.43 2.08) skewX(-4.38)" xlink:href="#radial-gradient-2"/>
    <radialGradient id="radial-gradient-17" cx="75.55" cy="-211.75" fx="75.55" fy="-211.75" r="9.89" xlink:href="#radial-gradient-13"/>
    <radialGradient id="radial-gradient-18" cx="961.81" cy="-2729.19" fx="961.81" fy="-2729.19" r="1.55" gradientTransform="translate(-721.5 -5774.32) rotate(156.04) scale(1.43 2.08) skewX(-4.38)" xlink:href="#radial-gradient-2"/>
    <radialGradient id="radial-gradient-19" cx="41.02" cy="-205.92" fx="41.02" fy="-205.92" r="14.06" xlink:href="#radial-gradient-13"/>
    <radialGradient id="radial-gradient-20" cx="980.05" cy="-2717.35" fx="980.05" fy="-2717.35" r="2.2" gradientTransform="translate(-721.5 -5774.32) rotate(156.04) scale(1.43 2.08) skewX(-4.38)" xlink:href="#radial-gradient-2"/>
    <radialGradient id="radial-gradient-21" cx="62.18" cy="-218.14" fx="62.18" fy="-218.14" r="14.06" xlink:href="#radial-gradient-13"/>
    <radialGradient id="radial-gradient-22" cx="964.03" cy="-2722.12" fx="964.03" fy="-2722.12" r="2.2" gradientTransform="translate(-721.5 -5774.32) rotate(156.04) scale(1.43 2.08) skewX(-4.38)" xlink:href="#radial-gradient-2"/>
  </defs>
  <g class="cls-16">
    <g id="Layer_2" data-name="Layer 2">
      <g id="OBJECTS">
        <g>
          <path class="cls-19" d="M38.59,33.98c0,11.81,9.58,21.39,21.39,21.39s21.39-9.58,21.39-21.39-9.58-21.38-21.39-21.38-21.39,9.57-21.39,21.38Z"/>
          <g>
            <path class="cls-7" d="M63.24,31.78c-5.45-4.42-7.58-11.15-4.75-15.03,2.82-3.88,9.53-3.45,14.98,.97,5.45,4.42,7.57,11.15,4.75,15.03-2.83,3.88-9.53,3.45-14.98-.97Z"/>
            <path class="cls-6" d="M41.08,38.71c.72-2.36,4.39-1.38,8.19,2.19,3.81,3.58,6.3,8.39,5.59,10.76-.72,2.36-4.39,1.39-8.2-2.19-3.8-3.58-6.3-8.39-5.59-10.76Z"/>
          </g>
          <path class="cls-22" d="M62.57,6.27c0,1.43-1.16,2.59-2.59,2.59h0c-1.43,0-2.59-1.16-2.59-2.59V2.59c0-1.43,1.16-2.59,2.59-2.59h0c1.43,0,2.59,1.16,2.59,2.59v3.68Z"/>
          <path class="cls-15" d="M42.22,12.56c1.01,1.01,1.01,2.66,0,3.67h0c-1.01,1.01-2.65,1.01-3.67,0l-2.6-2.6c-1.01-1.01-1.01-2.66,0-3.67h0c1.01-1.01,2.66-1.01,3.67,0l2.6,2.6Z"/>
          <path class="cls-14" d="M32.27,31.39c1.43,0,2.59,1.16,2.59,2.59h0c0,1.43-1.16,2.59-2.59,2.59h-3.68c-1.43,0-2.59-1.16-2.6-2.59h0c0-1.43,1.16-2.59,2.6-2.59h3.68Z"/>
          <path class="cls-17" d="M38.55,51.74c1.01-1.01,2.66-1.01,3.67,0h0c1.01,1.01,1.01,2.65,0,3.67l-2.6,2.6c-1.01,1.01-2.66,1.01-3.67,0h0c-1.01-1.01-1.01-2.66,0-3.67l2.6-2.6Z"/>
          <path class="cls-1" d="M57.39,61.69c0-1.43,1.16-2.59,2.59-2.59h0c1.43,0,2.59,1.16,2.59,2.59v3.68c0,1.43-1.16,2.59-2.59,2.59h0c-1.43,0-2.59-1.16-2.59-2.59v-3.68Z"/>
          <path class="cls-13" d="M77.74,55.41c-1.01-1.01-1.01-2.66,0-3.67h0c1.01-1.01,2.65-1.01,3.67,0l2.6,2.6c1.01,1.01,1.01,2.66,0,3.67h0c-1.01,1.01-2.66,1.01-3.67,0l-2.6-2.6Z"/>
          <path class="cls-25" d="M87.69,36.58c-1.43,0-2.59-1.16-2.59-2.59h0c0-1.43,1.16-2.59,2.59-2.59h3.68c1.43,0,2.59,1.16,2.6,2.59h0c0,1.43-1.16,2.59-2.6,2.59h-3.68Z"/>
          <path class="cls-2" d="M81.41,16.22c-1.01,1.01-2.66,1.01-3.67,0h0c-1.01-1.01-1.01-2.65,0-3.67l2.6-2.6c1.01-1.01,2.66-1.01,3.67,0h0c1.01,1.01,1.01,2.66,0,3.67l-2.6,2.6Z"/>
        </g>
        <path class="cls-24" d="M30.11,19.88c14.18,0,26.07,9.81,29.26,23.01,2.58-1.25,5.46-1.97,8.51-1.97,10.82,0,19.59,8.77,19.59,19.59s-8.77,19.59-19.59,19.59H30.11C13.48,80.1,0,66.62,0,49.99S13.48,19.88,30.11,19.88Z"/>
        <path class="cls-3" d="M25.75,48.61c8.07-6.55,11.22-16.51,7.04-22.26-4.19-5.75-14.12-5.11-22.19,1.43C2.53,34.33-.62,44.3,3.56,50.05c4.19,5.75,14.12,5.11,22.19-1.44Z"/>
        <path class="cls-10" d="M76.18,64.95c4.88-4.93,9.91-6.86,11.25-4.31,1.34,2.55-1.53,8.62-6.41,13.55-4.88,4.93-9.92,6.86-11.26,4.31-1.34-2.55,1.53-8.62,6.41-13.55Z"/>
        <g>
          <g>
            <path class="cls-20" d="M18.7,95.55c-1.14,1.97-3.65,2.64-5.62,1.5-1.97-1.13-2.64-3.65-1.5-5.62,1.13-1.97,8.16-5.91,8.16-5.91,0,0,.1,8.05-1.04,10.02Z"/>
            <path class="cls-11" d="M11.7,94.86c-.64-1.66-.25-3.42,.87-3.91,1.12-.5,2.54,.45,3.18,2.12,.64,1.67,.25,3.42-.87,3.91-1.12,.5-2.54-.45-3.18-2.12Z"/>
          </g>
          <g>
            <path class="cls-21" d="M41.35,95.55c-1.13,1.97-3.65,2.64-5.62,1.5-1.97-1.13-2.64-3.65-1.51-5.62,1.14-1.97,8.16-5.91,8.16-5.91,0,0,.1,8.05-1.04,10.02Z"/>
            <path class="cls-8" d="M34.35,94.86c-.64-1.66-.25-3.42,.87-3.91,1.12-.5,2.54,.45,3.17,2.12,.64,1.67,.25,3.42-.87,3.91-1.12,.5-2.54-.45-3.17-2.12Z"/>
          </g>
          <g>
            <path class="cls-23" d="M64,95.55c-1.13,1.97-3.65,2.64-5.62,1.5-1.97-1.13-2.64-3.65-1.51-5.62,1.14-1.97,8.16-5.91,8.16-5.91,0,0,.1,8.05-1.04,10.02Z"/>
            <path class="cls-5" d="M57,94.86c-.64-1.66-.25-3.42,.87-3.91,1.12-.5,2.54,.45,3.17,2.12,.64,1.67,.25,3.42-.87,3.91-1.12,.5-2.54-.45-3.17-2.12Z"/>
          </g>
        </g>
        <g>
          <g>
            <path class="cls-18" d="M33.5,83.73c-1.62,2.8-5.19,3.75-7.99,2.14-2.8-1.61-3.75-5.19-2.14-7.98,1.61-2.8,11.59-8.4,11.59-8.4,0,0,.14,11.44-1.47,14.24Z"/>
            <path class="cls-4" d="M23.55,82.76c-.91-2.37-.36-4.86,1.23-5.56,1.59-.71,3.61,.64,4.51,3.01,.91,2.37,.35,4.86-1.23,5.56-1.59,.71-3.61-.64-4.51-3.01Z"/>
          </g>
          <g>
            <path class="cls-12" d="M57.94,83.73c-1.61,2.8-5.19,3.75-7.98,2.14-2.8-1.61-3.75-5.19-2.14-7.98,1.62-2.8,11.6-8.4,11.6-8.4,0,0,.14,11.44-1.47,14.24Z"/>
            <path class="cls-9" d="M47.99,82.76c-.91-2.37-.36-4.86,1.23-5.56,1.58-.71,3.61,.64,4.51,3.01,.91,2.37,.36,4.86-1.23,5.56-1.59,.71-3.61-.64-4.51-3.01Z"/>
          </g>
        </g>
      </g>
    </g>
  </g>
</svg>