<?xml version="1.0" encoding="UTF-8"?>
<svg xmlns="http://www.w3.org/2000/svg" xmlns:xlink="http://www.w3.org/1999/xlink" viewBox="0 0 109.88 85.11">
  <defs>
    <style>
      .cls-1 {
        isolation: isolate;
      }

      .cls-2 {
        fill: url(#radial-gradient-4);
      }

      .cls-2, .cls-3, .cls-4, .cls-5, .cls-6 {
        mix-blend-mode: overlay;
      }

      .cls-3 {
        fill: url(#radial-gradient-5);
        opacity: .4;
      }

      .cls-4 {
        fill: url(#radial-gradient-2);
      }

      .cls-7 {
        fill: url(#radial-gradient);
      }

      .cls-5 {
        fill: url(#Degradado_sin_nombre_34);
      }

      .cls-5, .cls-6 {
        opacity: .2;
      }

      .cls-6 {
        fill: url(#Degradado_sin_nombre_34-2);
      }

      .cls-8 {
        fill: url(#radial-gradient-3);
      }
    </style>
    <radialGradient id="radial-gradient" cx="2326.75" cy="28.57" fx="2326.75" fy="28.57" r="81.35" gradientTransform="translate(2347.23) rotate(-180) scale(1 -1)" gradientUnits="userSpaceOnUse">
      <stop offset="0" stop-color="#fff"/>
      <stop offset=".2" stop-color="#d9f7ff"/>
      <stop offset="1" stop-color="#89c0f5"/>
    </radialGradient>
    <radialGradient id="radial-gradient-2" cx="756.97" cy="-2492.51" fx="756.97" fy="-2492.51" r="9.55" gradientTransform="translate(3419.69 -4105.03) rotate(53.97) scale(1.43 -2.08) skewX(-4.38)" gradientUnits="userSpaceOnUse">
      <stop offset="0" stop-color="#fff"/>
      <stop offset=".1" stop-color="#fff" stop-opacity=".85"/>
      <stop offset=".29" stop-color="#fff" stop-opacity=".59"/>
      <stop offset=".47" stop-color="#fff" stop-opacity=".38"/>
      <stop offset=".63" stop-color="#fff" stop-opacity=".22"/>
      <stop offset=".78" stop-color="#fff" stop-opacity=".1"/>
      <stop offset=".91" stop-color="#fff" stop-opacity=".03"/>
      <stop offset="1" stop-color="#fff" stop-opacity="0"/>
    </radialGradient>
    <radialGradient id="Degradado_sin_nombre_34" data-name="Degradado sin nombre 34" cx="2516.26" cy="193.2" fx="2516.26" fy="193.2" r="5.49" gradientTransform="translate(2130.37 872.56) rotate(-146.99) scale(.84 -2.3) skewX(11.81)" gradientUnits="userSpaceOnUse">
      <stop offset="0" stop-color="#fff"/>
      <stop offset=".1" stop-color="#fff" stop-opacity=".85"/>
      <stop offset=".29" stop-color="#fff" stop-opacity=".59"/>
      <stop offset=".47" stop-color="#fff" stop-opacity=".38"/>
      <stop offset=".63" stop-color="#fff" stop-opacity=".22"/>
      <stop offset=".78" stop-color="#fff" stop-opacity=".1"/>
      <stop offset=".91" stop-color="#fff" stop-opacity=".03"/>
      <stop offset="1" stop-color="#fff" stop-opacity="0"/>
    </radialGradient>
    <radialGradient id="radial-gradient-3" cx="-791.57" cy="4.43" fx="-791.57" fy="4.43" r="40.1" gradientTransform="translate(891.36)" xlink:href="#radial-gradient"/>
    <radialGradient id="radial-gradient-4" cx="2119.4" cy="-1272.36" fx="2119.4" fy="-1272.36" r="4.71" gradientTransform="translate(-181.1 -4105.03) rotate(126.03) scale(1.43 2.08) skewX(-4.38)" xlink:href="#radial-gradient-2"/>
    <radialGradient id="radial-gradient-5" cx="2133.29" cy="-1265.39" fx="2133.29" fy="-1265.39" r="2.59" gradientTransform="translate(-181.1 -4105.03) rotate(126.03) scale(1.43 2.08) skewX(-4.38)" xlink:href="#radial-gradient-2"/>
    <radialGradient id="Degradado_sin_nombre_34-2" data-name="Degradado sin nombre 34" cx="-1031.86" cy="-517.07" fx="-1031.86" fy="-517.07" r="2.7" gradientTransform="translate(1519.88 500.28) rotate(-33.01) scale(.84 2.3) skewX(11.81)" xlink:href="#Degradado_sin_nombre_34"/>
  </defs>
  <g class="cls-1">
    <g id="Layer_2" data-name="Layer 2">
      <g id="OBJECTS">
        <path class="cls-7" d="M32.77,19.58c15.43,0,28.37,10.67,31.84,25.04,2.8-1.36,5.94-2.14,9.26-2.14,11.77,0,21.32,9.54,21.32,21.31s-9.54,21.32-21.32,21.32H32.77C14.67,85.11,0,70.44,0,52.34S14.67,19.58,32.77,19.58Z"/>
        <path class="cls-4" d="M28.57,50.89c8.53-6.92,11.86-17.46,7.44-23.54-4.43-6.08-14.93-5.4-23.46,1.52C4.02,35.78,.69,46.33,5.11,52.4c4.43,6.08,14.93,5.4,23.46-1.52Z"/>
        <path class="cls-5" d="M81.91,68.16c5.16-5.22,10.48-7.26,11.9-4.56,1.41,2.7-1.62,9.11-6.78,14.33-5.16,5.22-10.49,7.26-11.9,4.56-1.41-2.7,1.62-9.11,6.78-14.33Z"/>
        <g>
          <path class="cls-8" d="M93.73,0c-7.61,0-13.98,5.26-15.69,12.34-1.38-.67-2.93-1.05-4.57-1.05-5.8,0-10.51,4.7-10.51,10.51s4.71,10.51,10.51,10.51h20.26c8.92,0,16.15-7.23,16.15-16.15S102.65,0,93.73,0Z"/>
          <path class="cls-2" d="M95.8,15.44c-4.2-3.41-5.85-8.61-3.67-11.61,2.18-3,7.36-2.66,11.57,.75,4.21,3.41,5.85,8.61,3.67,11.61-2.18,3-7.36,2.66-11.57-.75Z"/>
          <path class="cls-3" d="M74.64,19.87c-2.31-1.88-3.21-4.73-2.02-6.38,1.2-1.65,4.04-1.46,6.36,.41,2.31,1.88,3.21,4.73,2.02,6.38-1.2,1.65-4.04,1.46-6.36-.41Z"/>
          <path class="cls-6" d="M69.51,23.95c-2.54-2.57-5.17-3.58-5.87-2.25-.7,1.33,.8,4.49,3.34,7.07,2.54,2.57,5.17,3.58,5.87,2.25,.7-1.33-.8-4.49-3.34-7.06Z"/>
        </g>
      </g>
    </g>
  </g>
</svg>