<?xml version="1.0" encoding="UTF-8"?>
<svg xmlns="http://www.w3.org/2000/svg" xmlns:xlink="http://www.w3.org/1999/xlink" viewBox="0 0 103 88.78">
  <defs>
    <style>
      .cls-1 {
        fill: url(#radial-gradient-8);
      }

      .cls-1, .cls-2, .cls-3, .cls-4, .cls-5, .cls-6, .cls-7, .cls-8, .cls-9, .cls-10, .cls-11 {
        mix-blend-mode: overlay;
      }

      .cls-12 {
        fill: url(#radial-gradient-7);
      }

      .cls-2 {
        fill: url(#radial-gradient-12);
      }

      .cls-3 {
        fill: url(#radial-gradient-5);
      }

      .cls-13 {
        fill: url(#radial-gradient-4);
      }

      .cls-14 {
        isolation: isolate;
      }

      .cls-4 {
        fill: url(#radial-gradient-6);
        opacity: .4;
      }

      .cls-15 {
        fill: url(#radial-gradient);
      }

      .cls-5 {
        fill: url(#radial-gradient-16);
      }

      .cls-6 {
        fill: url(#radial-gradient-3);
        opacity: .3;
      }

      .cls-7 {
        fill: url(#radial-gradient-2);
        opacity: .5;
      }

      .cls-8 {
        fill: url(#Degradado_sin_nombre_34);
      }

      .cls-8, .cls-9 {
        opacity: .2;
      }

      .cls-16 {
        fill: url(#radial-gradient-13);
      }

      .cls-17 {
        fill: url(#radial-gradient-15);
      }

      .cls-9 {
        fill: url(#Degradado_sin_nombre_34-2);
      }

      .cls-10 {
        fill: url(#radial-gradient-14);
      }

      .cls-11 {
        fill: url(#radial-gradient-10);
      }

      .cls-18 {
        fill: url(#radial-gradient-11);
      }

      .cls-19 {
        fill: url(#radial-gradient-9);
      }
    </style>
    <radialGradient id="radial-gradient" cx="2652.62" cy="7.79" fx="2652.62" fy="7.79" r="70.49" gradientTransform="translate(2690.89) rotate(-180) scale(1 -1)" gradientUnits="userSpaceOnUse">
      <stop offset="0" stop-color="#bad0d6"/>
      <stop offset=".2" stop-color="#9bbac2"/>
      <stop offset="1" stop-color="#5d8bb8"/>
    </radialGradient>
    <radialGradient id="radial-gradient-2" cx="783.58" cy="-2393.25" fx="783.58" fy="-2393.25" r="8.27" gradientTransform="translate(3254.48 -4027.73) rotate(53.97) scale(1.43 -2.08) skewX(-4.38)" gradientUnits="userSpaceOnUse">
      <stop offset="0" stop-color="#fff"/>
      <stop offset=".1" stop-color="#fff" stop-opacity=".85"/>
      <stop offset=".29" stop-color="#fff" stop-opacity=".59"/>
      <stop offset=".47" stop-color="#fff" stop-opacity=".38"/>
      <stop offset=".63" stop-color="#fff" stop-opacity=".22"/>
      <stop offset=".78" stop-color="#fff" stop-opacity=".1"/>
      <stop offset=".91" stop-color="#fff" stop-opacity=".03"/>
      <stop offset="1" stop-color="#fff" stop-opacity="0"/>
    </radialGradient>
    <radialGradient id="radial-gradient-3" cx="808" cy="-2381" fx="808" fy="-2381" r="4.55" xlink:href="#radial-gradient-2"/>
    <radialGradient id="Degradado_sin_nombre_34" data-name="Degradado sin nombre 34" cx="2903.39" cy="161.22" fx="2903.39" fy="161.22" r="4.75" gradientTransform="translate(2368.05 1081.83) rotate(-146.99) scale(.84 -2.3) skewX(11.81)" gradientUnits="userSpaceOnUse">
      <stop offset="0" stop-color="#fff"/>
      <stop offset=".1" stop-color="#fff" stop-opacity=".85"/>
      <stop offset=".29" stop-color="#fff" stop-opacity=".59"/>
      <stop offset=".47" stop-color="#fff" stop-opacity=".38"/>
      <stop offset=".63" stop-color="#fff" stop-opacity=".22"/>
      <stop offset=".78" stop-color="#fff" stop-opacity=".1"/>
      <stop offset=".91" stop-color="#fff" stop-opacity=".03"/>
      <stop offset="1" stop-color="#fff" stop-opacity="0"/>
    </radialGradient>
    <radialGradient id="radial-gradient-4" cx="2673.15" cy="23.14" fx="2673.15" fy="23.14" r="70.49" gradientTransform="translate(2690.89) rotate(-180) scale(1 -1)" gradientUnits="userSpaceOnUse">
      <stop offset="0" stop-color="#fff"/>
      <stop offset=".2" stop-color="#d9f7ff"/>
      <stop offset="1" stop-color="#89c0f5"/>
    </radialGradient>
    <radialGradient id="radial-gradient-5" cx="782.87" cy="-2405.57" fx="782.87" fy="-2405.57" r="8.27" xlink:href="#radial-gradient-2"/>
    <radialGradient id="radial-gradient-6" cx="807.29" cy="-2393.31" fx="807.29" fy="-2393.31" r="4.55" xlink:href="#radial-gradient-2"/>
    <radialGradient id="Degradado_sin_nombre_34-2" data-name="Degradado sin nombre 34" cx="2924.11" cy="185.06" fx="2924.11" fy="185.06" r="4.75" gradientTransform="translate(2395.5 1063.02) rotate(-146.99) scale(.84 -2.3) skewX(11.81)" xlink:href="#Degradado_sin_nombre_34"/>
    <radialGradient id="radial-gradient-7" cx="-254.07" cy="355.29" fx="-254.07" fy="355.29" r="9.89" gradientTransform="translate(418.3 -94.86) rotate(30)" gradientUnits="userSpaceOnUse">
      <stop offset="0" stop-color="#d4f6ff"/>
      <stop offset=".2" stop-color="#d9f7ff"/>
      <stop offset="1" stop-color="#89c0f5"/>
    </radialGradient>
    <radialGradient id="radial-gradient-8" cx="2252.44" cy="-1359.01" fx="2252.44" fy="-1359.01" r="1.55" gradientTransform="translate(1944.43 -3864.55) rotate(156.04) scale(1.43 2.08) skewX(-4.38)" xlink:href="#radial-gradient-2"/>
    <radialGradient id="radial-gradient-9" cx="-234.45" cy="343.97" fx="-234.45" fy="343.97" r="9.89" xlink:href="#radial-gradient-7"/>
    <radialGradient id="radial-gradient-10" cx="2237.6" cy="-1363.43" fx="2237.6" fy="-1363.43" r="1.55" gradientTransform="translate(1944.43 -3864.55) rotate(156.04) scale(1.43 2.08) skewX(-4.38)" xlink:href="#radial-gradient-2"/>
    <radialGradient id="radial-gradient-11" cx="-214.84" cy="332.64" fx="-214.84" fy="332.64" r="9.89" xlink:href="#radial-gradient-7"/>
    <radialGradient id="radial-gradient-12" cx="2222.75" cy="-1367.85" fx="2222.75" fy="-1367.85" r="1.55" gradientTransform="translate(1944.43 -3864.55) rotate(156.04) scale(1.43 2.08) skewX(-4.38)" xlink:href="#radial-gradient-2"/>
    <radialGradient id="radial-gradient-13" cx="-249.37" cy="338.48" fx="-249.37" fy="338.48" r="14.06" xlink:href="#radial-gradient-7"/>
    <radialGradient id="radial-gradient-14" cx="2240.98" cy="-1356.01" fx="2240.98" fy="-1356.01" r="2.2" gradientTransform="translate(1944.43 -3864.55) rotate(156.04) scale(1.43 2.08) skewX(-4.38)" xlink:href="#radial-gradient-2"/>
    <radialGradient id="radial-gradient-15" cx="-228.2" cy="326.26" fx="-228.2" fy="326.26" r="14.06" xlink:href="#radial-gradient-7"/>
    <radialGradient id="radial-gradient-16" cx="2224.96" cy="-1360.78" fx="2224.96" fy="-1360.78" r="2.2" gradientTransform="translate(1944.43 -3864.55) rotate(156.04) scale(1.43 2.08) skewX(-4.38)" xlink:href="#radial-gradient-2"/>
  </defs>
  <g class="cls-14">
    <g id="Layer_2" data-name="Layer 2">
      <g id="OBJECTS">
        <g>
          <g>
            <path class="cls-15" d="M48.92,0c13.37,0,24.58,9.25,27.59,21.7,2.43-1.18,5.14-1.86,8.03-1.86,10.2,0,18.47,8.27,18.47,18.47s-8.27,18.47-18.47,18.47H48.92c-15.68,0-28.39-12.71-28.39-28.39S33.24,0,48.92,0Z"/>
            <path class="cls-7" d="M45.28,27.13c7.39-6,10.28-15.13,6.45-20.4-3.83-5.27-12.94-4.68-20.33,1.31-7.39,6-10.27,15.13-6.44,20.4,3.83,5.27,12.94,4.68,20.33-1.32Z"/>
            <path class="cls-6" d="M82.48,34.92c4.06-3.3,5.65-8.32,3.54-11.21-2.11-2.9-7.11-2.57-11.17,.72-4.06,3.3-5.65,8.32-3.54,11.21,2.11,2.9,7.11,2.57,11.17-.72Z"/>
            <path class="cls-8" d="M91.49,42.1c4.47-4.52,9.08-6.29,10.31-3.95,1.22,2.33-1.4,7.9-5.87,12.42-4.47,4.52-9.09,6.29-10.31,3.95-1.22-2.34,1.4-7.9,5.87-12.42Z"/>
          </g>
          <g>
            <path class="cls-13" d="M28.39,15.35c13.37,0,24.58,9.25,27.59,21.7,2.43-1.18,5.15-1.86,8.03-1.86,10.2,0,18.47,8.27,18.47,18.47s-8.27,18.47-18.47,18.47H28.39C12.71,72.13,0,59.42,0,43.74S12.71,15.35,28.39,15.35Z"/>
            <path class="cls-3" d="M24.75,42.48c7.39-6,10.28-15.13,6.45-20.4-3.83-5.27-12.93-4.68-20.33,1.31C3.48,29.39,.6,38.53,4.43,43.79c3.84,5.27,12.94,4.68,20.33-1.31Z"/>
            <path class="cls-4" d="M61.95,50.27c4.06-3.3,5.65-8.31,3.54-11.21-2.11-2.9-7.11-2.57-11.17,.72-4.06,3.3-5.65,8.32-3.54,11.21,2.11,2.9,7.11,2.57,11.17-.72Z"/>
            <path class="cls-9" d="M70.97,57.45c4.47-4.52,9.08-6.29,10.31-3.95,1.22,2.34-1.4,7.9-5.87,12.42-4.47,4.52-9.09,6.29-10.31,3.95-1.22-2.34,1.4-7.9,5.87-12.42Z"/>
          </g>
        </g>
        <g>
          <g>
            <path class="cls-12" d="M26.14,86.73c-1.14,1.97-3.65,2.64-5.62,1.5-1.97-1.13-2.64-3.65-1.5-5.62,1.13-1.97,8.16-5.91,8.16-5.91,0,0,.1,8.05-1.04,10.02Z"/>
            <path class="cls-1" d="M19.14,86.05c-.64-1.66-.25-3.42,.87-3.91,1.12-.5,2.54,.45,3.18,2.12,.64,1.67,.25,3.42-.87,3.91-1.12,.5-2.54-.45-3.18-2.12Z"/>
          </g>
          <g>
            <path class="cls-19" d="M48.79,86.73c-1.13,1.97-3.65,2.64-5.62,1.5-1.97-1.13-2.64-3.65-1.51-5.62,1.14-1.97,8.16-5.91,8.16-5.91,0,0,.1,8.05-1.04,10.02Z"/>
            <path class="cls-11" d="M41.79,86.05c-.64-1.66-.25-3.42,.87-3.91,1.12-.5,2.54,.45,3.17,2.12,.64,1.67,.25,3.42-.87,3.91-1.12,.5-2.54-.45-3.17-2.12Z"/>
          </g>
          <g>
            <path class="cls-18" d="M71.44,86.73c-1.13,1.97-3.65,2.64-5.62,1.5-1.97-1.13-2.64-3.65-1.51-5.62,1.14-1.97,8.16-5.91,8.16-5.91,0,0,.1,8.05-1.04,10.02Z"/>
            <path class="cls-2" d="M64.44,86.05c-.64-1.66-.25-3.42,.87-3.91,1.12-.5,2.54,.45,3.17,2.12,.64,1.67,.25,3.42-.87,3.91-1.12,.5-2.54-.45-3.17-2.12Z"/>
          </g>
        </g>
        <g>
          <g>
            <path class="cls-16" d="M40.94,74.91c-1.62,2.8-5.19,3.75-7.99,2.14-2.8-1.61-3.75-5.19-2.14-7.98,1.61-2.8,11.59-8.4,11.59-8.4,0,0,.14,11.44-1.47,14.24Z"/>
            <path class="cls-10" d="M30.98,73.94c-.91-2.37-.36-4.86,1.23-5.56,1.59-.71,3.61,.64,4.51,3.01,.91,2.37,.35,4.86-1.23,5.56-1.59,.71-3.61-.64-4.51-3.01Z"/>
          </g>
          <g>
            <path class="cls-17" d="M65.37,74.91c-1.61,2.8-5.19,3.75-7.98,2.14-2.8-1.61-3.75-5.19-2.14-7.98,1.62-2.8,11.6-8.4,11.6-8.4,0,0,.14,11.44-1.47,14.24Z"/>
            <path class="cls-5" d="M55.42,73.94c-.91-2.37-.36-4.86,1.23-5.56,1.58-.71,3.61,.64,4.51,3.01,.91,2.37,.36,4.86-1.23,5.56-1.59,.71-3.61-.64-4.51-3.01Z"/>
          </g>
        </g>
      </g>
    </g>
  </g>
</svg>