<svg xmlns="http://www.w3.org/2000/svg" version="1.1" xmlns:xlink="http://www.w3.org/1999/xlink" xmlns:svgjs="http://svgjs.com/svgjs" width="512" height="512" x="0" y="0" viewBox="0 0 512 512" style="enable-background:new 0 0 512 512" xml:space="preserve" class=""><g><path d="M208 336H16c-8.832 0-16 7.168-16 16s7.168 16 16 16h192c8.832 0 16 7.2 16 16s-7.168 16-16 16-16 7.168-16 16 7.168 16 16 16c26.464 0 48-21.536 48-48s-21.536-48-48-48zM304 80c-8.832 0-16 7.168-16 16s7.168 16 16 16c8.8 0 16 7.168 16 16s-7.2 16-16 16H16c-8.832 0-16 7.168-16 16s7.168 16 16 16h288c26.464 0 48-21.536 48-48s-21.536-48-48-48z" fill="#fff" data-original="#000000" class=""></path><path d="M432 112c-8.832 0-16 7.168-16 16s7.168 16 16 16c26.464 0 48 21.536 48 48s-21.536 48-48 48H16c-8.832 0-16 7.168-16 16s7.168 16 16 16h416c44.128 0 80-35.904 80-80s-35.872-80-80-80z" fill="#fff" class=""></path></g></svg>